<svg width="15" height="7" viewBox="0 0 15 7" fill="none" xmlns="http://www.w3.org/2000/svg">
<path d="M12.1739 2.89222C12.199 2.88842 12.1478 2.89222 12.1739 2.89222C11.9098 2.89222 11.6524 3.15792 11.6524 3.426C11.6524 3.72083 11.8858 3.95978 12.1739 3.95978H14.4784C14.7665 3.95978 15 3.72083 15 3.426C15 3.13117 14.7665 2.89222 14.4784 2.89222H12.1739Z" fill="#9C9B9E"/>
<path d="M10.5 2.89222H1.78071L3.22773 1.41126C3.43142 1.20279 3.43142 0.864848 3.22773 0.656376C3.02398 0.447845 2.69383 0.447904 2.49008 0.656376L0.152771 3.04862C-0.0509238 3.25709 -0.0509238 3.59503 0.152771 3.8035L2.49008 6.19563C2.59196 6.29989 2.72542 6.35196 2.85888 6.35196C2.99234 6.35196 3.12579 6.29983 3.22767 6.19563C3.43137 5.98715 3.43137 5.64921 3.22767 5.44074L1.78065 3.95978L10.5 3.95978C10.7881 3.95978 11.0216 3.72083 11.0216 3.426C11.0216 3.13117 10.7881 2.89222 10.5 2.89222Z" fill="#9C9B9E"/>
</svg>
