<svg width="15" height="10" viewBox="0 0 15 10" fill="none" xmlns="http://www.w3.org/2000/svg">
<path d="M11.9093 2.89222H1.78071L3.22773 1.41126C3.43142 1.20279 3.43142 0.864848 3.22773 0.656376C3.02398 0.447845 2.69383 0.447904 2.49008 0.656376L0.152771 3.04862C-0.0509238 3.25709 -0.0509238 3.59503 0.152771 3.8035L2.49008 6.19562C2.59196 6.29989 2.72542 6.35196 2.85888 6.35196C2.99234 6.35196 3.12579 6.29983 3.22767 6.19562C3.43137 5.98715 3.43137 5.64921 3.22767 5.44074L1.78065 3.95978H11.9093C13.0383 3.95978 13.9569 4.8999 13.9569 6.05542C13.9569 7.21094 13.0383 8.15105 11.9093 8.15105H9.59971C9.31164 8.15105 9.07816 8.39001 9.07816 8.68483C9.07816 8.97966 9.31164 9.21862 9.59971 9.21862H11.9093C13.6135 9.21862 15 7.79959 15 6.05542C15 4.31125 13.6135 2.89222 11.9093 2.89222Z" fill="#9C9B9E"/>
<path d="M5.47967 8.15101C5.1916 8.15101 4.95812 8.38997 4.95812 8.6848C4.95812 8.97962 5.1916 9.21858 5.47967 9.21858H7.7842C8.07227 9.21858 8.30575 8.97962 8.30575 8.6848C8.30575 8.38997 8.07227 8.15101 7.7842 8.15101H5.47967Z" fill="#9C9B9E"/>
<path d="M1.26009 8.15101C0.972016 8.15101 0.738535 8.38997 0.738535 8.6848C0.738535 8.97962 0.972016 9.21858 1.26009 9.21858H3.56462C3.85269 9.21858 4.08617 8.97962 4.08617 8.6848C4.08617 8.38997 3.85269 8.15101 3.56462 8.15101H1.26009Z" fill="#9C9B9E"/>
</svg>
