<svg width="15" height="7" viewBox="0 0 15 7" fill="none" xmlns="http://www.w3.org/2000/svg">
<path d="M2.82609 2.89222C2.80099 2.88842 2.85222 2.89222 2.82609 2.89222C3.09022 2.89222 3.34764 3.15792 3.34764 3.426C3.34764 3.72083 3.11416 3.95978 2.82609 3.95978H0.521552C0.233481 3.95978 9.53674e-07 3.72083 9.53674e-07 3.426C9.53674e-07 3.13117 0.233481 2.89222 0.521552 2.89222H2.82609Z" fill="#9C9B9E"/>
<path d="M4.5 2.89222H13.2193L11.7723 1.41126C11.5686 1.20279 11.5686 0.864848 11.7723 0.656376C11.976 0.447845 12.3062 0.447904 12.5099 0.656376L14.8472 3.04862C15.0509 3.25709 15.0509 3.59503 14.8472 3.8035L12.5099 6.19563C12.408 6.29989 12.2746 6.35196 12.1411 6.35196C12.0077 6.35196 11.8742 6.29983 11.7723 6.19563C11.5686 5.98715 11.5686 5.64921 11.7723 5.44074L13.2193 3.95978L4.5 3.95978C4.21193 3.95978 3.97845 3.72083 3.97845 3.426C3.97845 3.13117 4.21193 2.89222 4.5 2.89222Z" fill="#9C9B9E"/>
</svg>
