<svg width="14" height="14" viewBox="0 0 14 14" fill="none" xmlns="http://www.w3.org/2000/svg">
<path d="M6.98304 4.23999C7.26702 4.23999 7.49731 4.47024 7.49731 4.75428V6.46878H9.2115C9.49557 6.46878 9.72586 6.69903 9.72586 6.98306C9.72586 7.2671 9.49557 7.49736 9.2115 7.49736H7.49731V9.21125C7.49731 9.49528 7.26702 9.72554 6.98304 9.72554C6.69897 9.72554 6.46878 9.49528 6.46878 9.21125V7.49736H4.7546C4.47053 7.49736 4.24023 7.2671 4.24023 6.98306C4.24023 6.69903 4.47053 6.46878 4.7546 6.46878H6.46878V4.75428C6.46878 4.47024 6.69897 4.23999 6.98304 4.23999Z" fill="#9C9B9E"/>
<path fill-rule="evenodd" clip-rule="evenodd" d="M0 6.9999C5.6225e-05 3.13392 3.13408 -3.53329e-05 7.00006 0C10.866 3.53328e-05 14 3.13402 14 7C14 10.866 10.866 14 7.00006 14C3.13402 14 -5.62259e-05 10.8659 0 6.9999ZM1.28698 6.9999C1.28704 3.84469 3.84486 1.28693 7.00006 1.28697C10.1552 1.287 12.713 3.84473 12.713 6.9999C12.7131 10.1551 10.1553 12.713 7.00006 12.713C3.8448 12.7131 1.28693 10.1552 1.28698 6.9999Z" fill="#9C9B9E"/>
</svg>
