<svg width="13" height="14" viewBox="0 0 13 14" fill="none" xmlns="http://www.w3.org/2000/svg">
<path fill-rule="evenodd" clip-rule="evenodd" d="M4.41982 2.9465C4.30705 3.45402 4.23656 3.97564 4.18018 4.49726C4.61717 3.08748 5.05417 1.84688 5.57574 1.53673C6.15371 1.19838 6.57661 1.94556 6.88673 2.93241C7.42241 4.70873 7.56337 6.54144 7.4224 8.37415C7.36602 9.19182 7.0277 12.7445 5.80129 12.5189C5.22333 12.4202 4.74404 11.1514 4.29295 9.55836C4.32114 10.4042 4.40572 11.1514 4.57488 11.7999C4.74404 12.4625 5.3502 14.0415 6.196 13.9992C8.04266 13.9005 8.42327 8.27547 8.39507 6.90798C8.36688 5.68147 7.8594 0.0423612 6.21009 6.78971e-05C5.27971 -0.0140299 4.57488 2.17113 4.41982 2.9465Z" fill="#FFEE00"/>
<path fill-rule="evenodd" clip-rule="evenodd" d="M8.94494 3.3975C8.64891 3.48209 8.35288 3.59487 8.05685 3.70766L8.07095 3.82044C9.26916 3.59487 10.2841 3.48209 10.7211 3.73585C11.2991 4.0742 10.848 4.82138 10.1291 5.55446C8.83217 6.87965 7.29563 7.88059 5.61813 8.65597C4.87101 8.99432 1.61468 10.4182 1.20587 9.23398C1.02262 8.67007 1.89661 7.65503 3.08073 6.48492C2.3477 6.90785 1.74155 7.35898 1.24816 7.81011C0.754781 8.27533 -0.344759 9.55823 0.106334 10.2913C1.079 11.8562 6.19609 9.47364 7.38021 8.79695C8.43746 8.19075 13.1316 5.01875 12.3704 3.56668C11.9475 2.72081 9.69206 3.17194 8.94494 3.3975Z" fill="#FF0483"/>
<path fill-rule="evenodd" clip-rule="evenodd" d="M3.53198 3.3975C3.79982 3.48209 4.02536 3.55258 4.2932 3.65126C4.2932 3.65126 4.2791 3.76405 4.2791 3.79224C3.13727 3.58078 2.1928 3.48209 1.7558 3.73585C1.17784 4.0742 1.62893 4.82138 2.34786 5.55446C3.64475 6.87965 5.18129 7.88059 6.85879 8.65597C7.60591 8.99432 10.8622 10.4182 11.271 9.23398C11.4261 8.76875 10.834 7.96518 9.93186 7.02063L10.0728 6.90785C10.5098 7.2039 10.8904 7.49996 11.2288 7.81011C11.7221 8.27533 12.8217 9.55823 12.3706 10.2913C11.3979 11.8562 6.28083 9.47364 5.09671 8.79695C4.03946 8.19075 -0.654726 5.01875 0.106493 3.56668C0.529393 2.72081 2.78486 3.17194 3.53198 3.3975ZM4.43417 3.72175C4.63152 3.79224 4.81477 3.87683 5.01213 3.94732C4.80068 3.90502 4.58923 3.86273 4.39187 3.82044L4.43417 3.72175Z" fill="#6A91CC"/>
</svg>
