<svg width="15" height="7" viewBox="0 0 15 7" fill="none" xmlns="http://www.w3.org/2000/svg">
<path d="M0.521552 2.89207C0.546652 2.88827 0.49542 2.89207 0.521552 2.89207C0.257417 2.89207 0 3.15777 0 3.42585C0 3.72068 0.233481 3.95963 0.521552 3.95963H2.82609C3.11416 3.95963 3.34764 3.72068 3.34764 3.42585C3.34764 3.13102 3.11416 2.89207 2.82609 2.89207H0.521552Z" fill="#9C9B9E"/>
<path d="M4.49299 2.89207C4.51671 2.88827 4.46829 2.89207 4.49299 2.89207C4.24332 2.89207 4 3.15777 4 3.42585C4 3.72068 4.22069 3.95963 4.49299 3.95963H9.50701C9.77931 3.95963 10 3.72068 10 3.42585C10 3.13102 9.77931 2.89207 9.50701 2.89207H4.49299Z" fill="#9C9B9E"/>
<path d="M14.4502 1.0501L9.70055 5.7998M14.4498 5.79951L9.7002 1.0498" stroke="#9C9B9E" stroke-width="1.1" stroke-miterlimit="22.9256" stroke-linecap="round" stroke-linejoin="round"/>
</svg>
