<svg width="12" height="12" viewBox="0 0 12 12" fill="none" xmlns="http://www.w3.org/2000/svg">
<path d="M9.00003 5.57129H3.00003C2.52664 5.57129 2.14288 5.95504 2.14288 6.42843V9.42843C2.14288 9.90182 2.52664 10.2856 3.00003 10.2856H9.00003C9.47341 10.2856 9.85717 9.90182 9.85717 9.42843V6.42843C9.85717 5.95504 9.47341 5.57129 9.00003 5.57129Z" stroke="#787885" stroke-width="1.2" stroke-linecap="round" stroke-linejoin="round"/>
<path d="M3.85712 5.5715V3.85721C3.85712 3.28889 4.08288 2.74385 4.48474 2.34198C4.88661 1.94012 5.43165 1.71436 5.99997 1.71436C6.56829 1.71436 7.11334 1.94012 7.5152 2.34198C7.91707 2.74385 8.14283 3.28889 8.14283 3.85721V5.5715" stroke="#787885" stroke-width="1.2" stroke-linecap="round" stroke-linejoin="round"/>
</svg>
