<svg width="162" height="31" viewBox="0 0 162 31" fill="none" xmlns="http://www.w3.org/2000/svg">
<path fill-rule="evenodd" clip-rule="evenodd" d="M120.951 11.367H122.064V20.3242C122.064 21.8911 122.925 22.0836 124.448 22.0836H135.258C136.518 22.0836 137.643 21.9109 137.643 20.6441V11.367H138.755V8.80778C135.971 8.80778 134.622 8.36428 134.622 10.4073V19.3645H131.443V8.80778H128.422V19.3645H125.084V10.0873C125.084 8.38298 123.068 8.80778 120.951 8.80778V11.367ZM11.7633 6.38088C11.04 6.38088 10.3167 6.38088 9.59346 6.38088H9.58979C8.88742 6.37728 8.92717 5.92097 9.76272 5.09467L11.8743 3.00628L14.7276 0.18448C15.1198 -0.0934202 15.6026 -0.055621 15.9481 0.286179L18.6987 3.00628C19.4025 3.70238 20.1064 4.39847 20.8102 5.09467C21.6458 5.92097 21.6855 6.37728 20.9833 6.38088C20.9805 6.38088 20.9777 6.38088 20.9749 6.38088C20.2532 6.38088 19.5315 6.38088 18.8098 6.38088C18.4601 6.38088 18.1741 6.66868 18.1741 7.02048V11.3571C18.1741 11.7089 17.8881 11.9967 17.5384 11.9967H13.0346C12.685 11.9967 12.3989 11.7089 12.3989 11.3571V7.02048C12.3989 6.66868 12.1129 6.38088 11.7633 6.38088ZM6.34173 18.9258V20.0174V21.109V21.1128C6.33816 21.8194 5.88465 21.7794 5.06342 20.9387L2.98794 18.8141L0.183347 15.9432C-0.0928481 15.5485 -0.0552784 15.0628 0.284425 14.7151L2.98794 11.9476C3.67977 11.2394 4.37149 10.5312 5.06342 9.82298C5.88465 8.98228 6.33816 8.94227 6.34173 9.64887C6.34173 9.65167 6.34173 9.65448 6.34173 9.65728V10.4839V11.8358V18.9258ZM11.7633 24.3808C11.04 24.3808 10.3167 24.3808 9.59346 24.3808H9.58979C8.88742 24.3844 8.92717 24.8407 9.76272 25.667L11.8743 27.7553L14.7276 30.5772C15.1198 30.8551 15.6026 30.8173 15.9481 30.4755L18.6987 27.7553C19.4025 27.0592 20.1064 26.3632 20.8102 25.667C21.6458 24.8407 21.6855 24.3844 20.9833 24.3808C20.9805 24.3808 20.9777 24.3808 20.9749 24.3808C20.2532 24.3808 19.5315 24.3808 18.8098 24.3808C18.4601 24.3808 18.1741 24.093 18.1741 23.7412V19.4046C18.1741 19.0528 17.8881 18.765 17.5384 18.765H13.0346C12.685 18.765 12.3989 19.0528 12.3989 19.4046V23.7412C12.3989 24.093 12.1129 24.3808 11.7633 24.3808ZM24.2312 18.9258V20.0174V21.109V21.1128C24.2348 21.8194 24.6883 21.7794 25.5095 20.9387L27.5851 18.8141L30.3896 15.9432C30.6658 15.5485 30.6282 15.0628 30.2885 14.7151L27.5851 11.9476C26.8933 11.2394 26.2014 10.5312 25.5095 9.82298C24.6883 8.98228 24.2348 8.94227 24.2312 9.64887C24.2312 9.65167 24.2312 9.65448 24.2312 9.65728V10.4839V11.8358V18.9258ZM45.9173 22.0836C45.9173 20.3242 45.9173 18.5647 45.9173 16.8053H41.1483V22.0836H38.1278C38.1278 18.5114 38.1278 14.9392 38.1278 11.367H37.0151V8.80778C41.7305 8.80778 41.1483 8.13398 41.1483 14.0861H45.9173C45.9173 12.6731 45.6737 9.94067 46.2916 9.18427C46.7986 8.56367 48.697 8.80778 50.0506 8.80778V11.367H48.9378V22.0836H45.9173ZM113.782 11.3798C118.64 11.3609 118.811 19.213 113.835 19.3588C109.004 19.5004 108.883 11.3988 113.782 11.3798ZM68.491 16.4854C69.581 16.4854 71.9883 16.023 71.9883 17.765C71.9883 19.736 70.0993 19.3645 68.491 19.3645V16.4854ZM57.2235 11.4376C62.4397 11.5292 61.8985 19.2165 57.3547 19.3326C52.4654 19.4575 52.1539 11.3485 57.2235 11.4376ZM93.7672 11.367H94.88V21.6038C94.88 22.3677 95.9442 22.0836 97.9004 22.0836V11.367H102.51V20.3242C102.51 22.4508 104.317 22.0836 106.644 22.0836V19.3645H105.531V10.0873C105.531 9.31358 105.028 8.80778 104.259 8.80778H93.7672V11.367ZM80.5726 16.1655L81.5265 12.9665L82.6393 16.1655H80.5726ZM155.924 12.9665L156.878 16.1655L154.788 16.1575L155.924 12.9665ZM139.391 10.7272V12.4866H142.094V11.367H143.842V22.0836H146.704V11.367H148.294V12.4866H151.155C151.155 10.7248 151.496 8.80778 149.883 8.80778H140.663C139.583 8.80778 139.391 9.64997 139.391 10.7272ZM150.201 19.3645H149.724C149.724 22.1072 149.155 22.4155 151.977 21.9512C153.098 21.7669 153.028 21.4752 153.562 20.0264C153.728 19.5755 153.885 19.2924 154.017 18.7247H157.673C158.038 19.4912 158.21 20.4106 158.569 21.1815C158.97 22.0393 161.965 22.6026 161.965 21.6038V19.3645C160.9 19.3645 161.156 19.478 160.279 16.9025L157.355 8.80778H154.335L150.974 18.2231C150.65 19.1272 150.664 19.3645 150.201 19.3645ZM75.9626 19.3645H75.4857C75.4857 22.3252 75.2532 22.0836 76.4394 22.0836C79.5033 22.0836 78.7635 20.8516 79.7778 18.7247H83.4342C84.6125 21.1957 83.5667 22.0836 87.2494 22.0836C87.9827 22.0836 87.7263 21.1845 87.7263 19.3645C86.6559 19.3645 87.0014 19.3886 86.7858 19.0313L83.1162 8.80778H80.0958L76.7089 18.196C76.4967 18.739 76.526 19.3645 75.9626 19.3645ZM64.0322 15.4623C64.0934 12.8861 62.7828 10.2834 59.9589 9.07507C57.0845 7.84517 54.0906 8.81328 52.3945 10.5263C50.2368 12.7055 50.0026 15.3314 50.9796 18.1098C51.3311 19.1094 52.4509 20.4164 53.2257 20.9683C57.6622 24.1287 63.8985 21.1056 64.0322 15.4623ZM68.491 11.367H69.9218C70.7539 11.367 71.5115 11.6882 71.5115 12.4866C71.5115 13.5222 70.9629 13.9262 69.9218 13.9262H68.491V11.367ZM64.3578 11.367H65.4706V20.3242C65.4706 22.3781 67.2699 22.0836 69.1269 22.0836C71.9006 22.0836 75.0088 21.4111 75.0088 18.0849C75.0088 16.616 74.302 15.6408 73.4191 15.0458C73.648 14.7018 73.9752 14.2821 74.1693 13.8812C74.6125 12.9652 74.6083 11.806 74.2225 10.8785C73.7498 9.74257 72.2513 8.80778 70.7166 8.80778H64.3578V11.367ZM120.625 14.9012C120.522 12.6255 119.32 10.3968 116.768 9.17778C112.307 7.04728 106.913 10.3037 106.992 15.329C107.139 24.7014 121.049 24.3421 120.625 14.9012Z" fill="#EA1C25"/>
</svg>
