<svg width="14" height="14" viewBox="0 0 14 14" fill="none" xmlns="http://www.w3.org/2000/svg">
<path d="M0 7V14H7H14V7V0H7H0V7ZM5.98281 5.59453C6.04023 5.61094 6.04297 5.62461 6.04297 5.89258V6.17148L5.91172 6.15781C5.63555 6.1332 5.39766 6.26992 5.33477 6.49414C5.31836 6.55703 5.30469 6.8332 5.30469 7.12852V7.65625H5.00391H4.70312V6.64453V5.63281H5.00391H5.30469V5.75859V5.88437L5.37578 5.79688C5.46055 5.6957 5.56992 5.63828 5.72305 5.60547C5.87344 5.57812 5.90898 5.57539 5.98281 5.59453ZM7.75195 5.67109C8.30977 5.92539 8.54766 6.48047 8.33711 7.04375C8.26055 7.24883 8.01172 7.50312 7.7793 7.61797C7.62617 7.6918 7.59336 7.69727 7.28711 7.69727C6.96992 7.69727 6.95078 7.69453 6.77578 7.60703C6.54336 7.49492 6.36016 7.30898 6.25078 7.08203C6.17422 6.9207 6.16602 6.87969 6.16602 6.64453C6.16602 6.42031 6.17695 6.36289 6.23984 6.22891C6.36836 5.95 6.60898 5.74219 6.93164 5.62461C7.13945 5.55078 7.53867 5.57266 7.75195 5.67109ZM10.1664 5.66562C10.232 5.6957 10.3113 5.76133 10.3414 5.80781L10.3961 5.89258L10.5109 5.78047C10.7762 5.52617 11.3094 5.52891 11.5773 5.78594C11.7633 5.96367 11.8125 6.2207 11.8125 7.06016V7.65625H11.498H11.1863L11.1781 6.97539C11.1699 6.29727 11.1699 6.2918 11.1043 6.22344C10.9703 6.07852 10.7133 6.1168 10.6176 6.29453C10.5738 6.37383 10.5684 6.46953 10.5602 7.01914L10.552 7.65625H10.2539H9.95586L9.94766 6.98906C9.93945 6.36016 9.93672 6.31641 9.88203 6.24258C9.74805 6.06211 9.47734 6.10586 9.37891 6.32461C9.33242 6.42578 9.32422 6.50781 9.32422 7.04648V7.65625H9.02344H8.72266V6.64453V5.63281H9.02344H9.32422V5.74766V5.86523L9.38711 5.79414C9.48008 5.6875 9.53477 5.65469 9.67422 5.61641C9.83008 5.57266 10.0078 5.5918 10.1664 5.66562ZM3.81445 5.6875C4.42969 5.98281 4.59375 6.85508 4.12891 7.36367C3.96758 7.54141 3.78711 7.64258 3.56016 7.68359C3.28398 7.73281 2.93945 7.63984 2.83281 7.48672C2.7918 7.4293 2.78906 7.46484 2.78906 7.93789V8.44922H2.48828H2.1875V7.04102V5.63281H2.48828H2.78906V5.74492V5.85703L2.87656 5.77227C3.00781 5.64375 3.14727 5.60547 3.43164 5.61367C3.62305 5.62187 3.70781 5.63828 3.81445 5.6875Z" fill="url(#paint0_linear_1208_1453)"/>
<path d="M7.0655 6.17669C6.80574 6.29701 6.69089 6.64974 6.83035 6.90404C6.84402 6.93412 6.89324 6.99154 6.93699 7.03255C7.13386 7.22122 7.47566 7.21029 7.6616 7.01068C7.7573 6.90677 7.79285 6.80833 7.79285 6.64154C7.79285 6.26419 7.40456 6.01537 7.0655 6.17669Z" fill="url(#paint1_linear_1208_1453)"/>
<path d="M3.06235 6.19593C2.93931 6.25061 2.87641 6.30803 2.81352 6.43108C2.68774 6.67718 2.79985 6.99163 3.05415 7.09827C3.2647 7.1885 3.56821 7.11741 3.68852 6.95061C3.8772 6.68538 3.76235 6.29436 3.46431 6.18225C3.35493 6.14124 3.17446 6.14671 3.06235 6.19593Z" fill="url(#paint2_linear_1208_1453)"/>
<defs>
<linearGradient id="paint0_linear_1208_1453" x1="-0.095703" y1="0.0410162" x2="13.9453" y2="13.9863" gradientUnits="userSpaceOnUse">
<stop stop-color="#4854A2"/>
<stop offset="1" stop-color="#8F2DA4"/>
</linearGradient>
<linearGradient id="paint1_linear_1208_1453" x1="6.76352" y1="6.12976" x2="7.80705" y2="7.14781" gradientUnits="userSpaceOnUse">
<stop stop-color="#4854A2"/>
<stop offset="1" stop-color="#8F2DA4"/>
</linearGradient>
<linearGradient id="paint2_linear_1208_1453" x1="2.75475" y1="6.15775" x2="3.74006" y2="7.17213" gradientUnits="userSpaceOnUse">
<stop stop-color="#4854A2"/>
<stop offset="1" stop-color="#8F2DA4"/>
</linearGradient>
</defs>
</svg>
