<svg width="14" height="14" viewBox="0 0 14 14" fill="none" xmlns="http://www.w3.org/2000/svg">
<path d="M13.9999 7.03391C13.9796 10.9001 10.8369 14.0202 6.96952 13.9999C3.10214 13.9863 -0.0202204 10.8323 9.86109e-05 6.96609C0.0204176 3.09986 3.16987 -0.0202496 7.03048 9.89676e-05C10.8979 0.0204475 14.0202 3.16769 13.9999 7.03391Z" fill="#221F1F"/>
<path d="M3.67078 5.37877C3.90783 5.43303 4.17198 5.14137 4.26003 4.72761C4.34808 4.32064 4.23294 3.9408 3.99588 3.89332C3.83333 3.85941 3.664 3.9815 3.54209 4.18499C3.65046 4.23925 3.70464 4.37491 3.65046 4.49021C3.60305 4.59196 3.49468 4.653 3.38631 4.62587C3.3389 5.00571 3.45404 5.33129 3.67078 5.37877ZM2.53291 4.51735C2.72256 3.49992 3.31181 2.76059 3.84688 2.86233C4.38194 2.96407 4.65964 3.87298 4.46999 4.8904C4.28035 5.90783 3.6911 6.64716 3.15603 6.54542C2.62096 6.44368 2.34327 5.53477 2.53291 4.51735ZM11.7916 5.37877C5.81105 9.38065 1.69983 7.35258 1.69983 7.35258C1.63888 8.74306 4.0162 13.0163 6.86086 13.0705C9.70553 13.118 11.7916 5.37877 11.7916 5.37877ZM3.11539 6.71499C3.73851 6.83708 4.42258 6.02992 4.63254 4.92432C4.84251 3.81871 4.50386 2.82163 3.88074 2.69954C3.25762 2.57745 2.58032 3.38461 2.37036 4.49021C2.15362 5.59582 2.49227 6.5929 3.11539 6.71499ZM5.26243 6.14523C5.4724 5.90783 5.70945 5.684 5.98715 5.47373C7.21983 4.52413 8.57443 4.28673 9.00791 4.94467C9.17723 5.20241 9.184 5.55512 9.05532 5.94175C9.49556 5.21598 9.6378 4.54448 9.3601 4.17142C8.90631 3.55418 7.49075 3.97472 6.20388 5.12102C5.83814 5.4466 5.51981 5.79931 5.26243 6.14523ZM6.63735 3.1133C7.62621 2.44179 9.32624 2.07552 10.2338 3.47279C9.68521 0.257717 7.31465 2.10943 6.63735 3.1133ZM13.8167 7.03378C13.7964 10.7983 10.735 13.8302 6.96923 13.8166C3.20344 13.7963 0.189453 10.7304 0.189453 6.97274C0.189453 4.53091 1.40182 2.78094 2.56 1.83812C3.97556 0.685036 4.93733 1.57359 5.27598 2.23831C5.23534 1.95343 5.1202 1.13949 4.80187 0.549379C5.49949 0.31198 6.24452 0.183105 7.02342 0.183105C10.796 0.203454 13.8303 3.2693 13.8167 7.03378ZM9.51588 10.4727C8.77762 11.8021 7.8565 12.8874 6.827 12.867C6.19034 12.8535 5.58077 12.6093 5.01861 12.2362C5.21502 11.9039 6.3258 10.2828 9.51588 10.4727Z" fill="#05BC52"/>
</svg>
